<?xml version="1.0" encoding="utf-8"?>
<!-- Generator: Adobe Illustrator 16.0.0, SVG Export Plug-In . SVG Version: 6.00 Build 0)  -->
<!DOCTYPE svg PUBLIC "-//W3C//DTD SVG 1.1//EN" "http://www.w3.org/Graphics/SVG/1.1/DTD/svg11.dtd">
<svg version="1.1" xmlns="http://www.w3.org/2000/svg" xmlns:xlink="http://www.w3.org/1999/xlink" x="0px" y="0px"
	 width="348.667px" height="119.667px" viewBox="0 0 348.667 119.667" enable-background="new 0 0 348.667 119.667"
	 xml:space="preserve">
<g id="Soporte">
	<rect x="0.049" fill="#B92025" width="349.573" height="120.214"/>
</g>
<g id="Imagenes">
</g>
<g id="Vectores">
	<g>
		<g>
			<path fill="#FFFFFF" d="M201.698,49.174c-0.131-0.164,0.061-0.524,0.427-0.875c0.555-0.535,4.364-4.365,5.886-5.886
				c0.383-0.382,1.675-1.16,2.943,0.6c1.538,2.134,0.153,3.182,0,3.242c-2.028,0.8-8.405,2.893-8.405,2.893
				S201.871,49.387,201.698,49.174z"/>
			<rect x="35" y="41" fill="#FFFFFF" width="9" height="30"/>
			<path fill="#FFFFFF" d="M66.212,57c-0.185-3-2.467-7.599-10.898-7.704c-6.265-0.079-8.185,3.143-8.774,4.975
				c-0.137,0.313-0.211,0.696-0.24,1.053c-0.024,0.171-0.027,0.289-0.027,0.289c0,1.766,1.405,3.208,3.139,3.208
				c1.734,0,3.139-1.25,3.139-3.017c0-0.755-0.266-1.804-0.695-1.804h0.002c0,0-1.173-1.881,2.686-1.551
				C57.645,52.715,58.038,56,58.073,57H58v4.255c-1-1.148-3.307-1.873-5.486-1.873c-4.205,0-7.599,2.666-7.599,5.955
				s3.385,5.954,7.59,5.954c2.18,0,4.495-0.725,5.495-1.872V71h8V57H66.212z M52.549,69.526c-2.318,0-4.197-1.752-4.197-3.915
				c0-2.162,1.879-3.914,4.197-3.914s4.198,1.752,4.198,3.914C56.747,67.774,54.867,69.526,52.549,69.526z"/>
			<path fill="#FFFFFF" d="M92.145,50.561c-6.781,0-12.277,4.838-12.277,10.806s5.496,10.807,12.277,10.807
				c6.777,0,12.275-4.838,12.275-10.807S98.922,50.561,92.145,50.561z M92.145,69.821c-3.086,0-5.588-3.785-5.588-8.455
				c0-4.669,2.502-8.454,5.588-8.454c3.084,0,5.586,3.785,5.586,8.454C97.73,66.036,95.229,69.821,92.145,69.821z"/>
			<path fill="#FFFFFF" d="M205.978,50.561c-6.78,0-12.276,4.838-12.276,10.806s5.496,10.807,12.276,10.807
				c6.778,0,12.276-4.838,12.276-10.807S212.756,50.561,205.978,50.561z M205.978,69.821c-3.086,0-5.587-3.785-5.587-8.455
				c0-4.669,2.501-8.454,5.587-8.454c3.085,0,5.587,3.785,5.587,8.454C211.564,66.036,209.063,69.821,205.978,69.821z"/>
			<path fill="#FFFFFF" d="M123.662,50.854c-2.845,0-5.662,0.853-7.662,2.271V50h-10v39h10V69.902c2,1.418,4.817,2.271,7.662,2.271
				c6.759,0,12.239-4.773,12.239-10.66S130.421,50.854,123.662,50.854z M119.877,69.526c-1.413,0-2.877-0.596-3.877-1.564V55.798
				c1-0.966,2.464-1.563,3.877-1.563c3.45,0,6.248,3.423,6.248,7.645C126.125,66.103,123.327,69.526,119.877,69.526z"/>
			<rect x="137" y="50" fill="#FFFFFF" width="10" height="21"/>
			<path fill="#FFFFFF" d="M146.874,43.503c0.88,2.119-1.214,3.724-4.015,4.745c-3.163,1.155-5.656,0.34-6.058-0.968
				c-0.366-1.194,0.909-3.171,3.831-4.466C143.357,41.606,146.119,41.684,146.874,43.503z"/>
			<rect x="182" y="50" fill="#FFFFFF" width="10" height="21"/>
			<path fill="#FFFFFF" d="M191.863,43.503c0.88,2.119-1.214,3.724-4.014,4.745c-3.164,1.155-5.657,0.34-6.059-0.968
				c-0.366-1.194,0.91-3.171,3.832-4.466C188.348,41.606,191.109,41.684,191.863,43.503z"/>
			<path fill="#FFFFFF" d="M177.848,56c-0.306-4-4.146-4.282-8.794-4.352C165.165,51.59,161,53.414,159,54.32V50h-10v21h10V57.836
				c1-1.023,2.736-2.602,5.087-2.865c3.602-0.403,3.913,2.898,3.913,4.156V71h10V56H177.848z"/>
			<path fill="#FFFFFF" d="M248.971,56c-0.305-4-4.207-4.282-8.855-4.352C236.227,51.59,232,53.414,230,54.32V50h-9v21h9V57.836
				c1-1.023,2.736-2.602,5.086-2.865c3.603-0.403,3.914,2.898,3.914,4.156V71h10V56H248.971z"/>
		</g>
	</g>
	<g>
		<path fill="#680008" d="M275,71V59h-10v-3h10v-0.993c0-2.168-0.542-3.827-1.463-4.976c-0.923-1.147-2.288-1.722-4.016-1.722
			c-1.728,0-3.14,0.574-4.055,1.722C264.548,51.18,264,52.839,264,55.007V71h-3V54.938c0-2.969,0.703-5.326,2.275-7.071
			c1.57-1.745,3.625-2.618,6.246-2.618s4.627,0.873,6.206,2.618c1.576,1.745,2.273,4.103,2.273,7.071V71H275z"/>
		<path fill="#680008" d="M275.91,46h4.103c1.913,0,3.558-0.022,4.932,0.268c1.374,0.29,2.555,0.647,3.54,1.239
			c2.006,1.206,3.531,2.677,4.575,4.498c1.044,1.82,1.564,3.847,1.564,6.12c0,2.273-0.548,4.332-1.644,6.199
			c-1.096,1.867-2.652,3.393-4.67,4.587c-0.928,0.545-2.059,1.17-3.392,1.454C283.584,70.649,282.088,71,280.43,71H280v-3.451
			c0,0,0.308,0.006,0.493,0.018c0.186,0.011,0.357,0.017,0.438,0.017c3.098,0,5.601-0.873,7.474-2.618
			c1.873-1.745,2.818-4.044,2.818-6.896c0-2.912-0.952-5.225-2.865-6.941s-4.502-2.575-7.773-2.575c-0.174,0-0.37,0.006-0.589,0.018
			c-0.221,0.011-1.128,0.195-1.557,0.219L275.91,46z"/>
		<path fill="#680008" d="M296.92,53.451c0.492,0.528,1.673,1.272,3.541,2.235l3.635,1.844c1.588,0.813,2.763,1.74,3.521,2.783
			c0.761,1.044,1.141,2.256,1.141,3.636c0,2.099-0.717,3.94-2.148,5.101c-1.434,1.159-3.459,1.951-6.08,1.951h-9.713l3.319-4h7.037
			c1.356,0,2.386-0.131,3.089-0.665c0.701-0.533,1.052-1.248,1.052-2.281c0-0.8-0.271-1.464-0.81-2.062s-1.551-1.256-3.035-2.01
			l-4.174-2.13L296.92,53.451z"/>
		<path fill="#680008" d="M293.324,48.619c0.314-0.498,0.719-0.775,1.213-1.168c1.356-1.078,3.218-1.451,5.584-1.451H307v3h-7.975
			c-0.952,0-1.709,0.218-2.271,0.698c-0.563,0.482-0.844,1.105-0.844,1.894L293.324,48.619z"/>
	</g>
	<polygon fill="#680008" points="252,57.008 259.422,61.313 252,65.616 	"/>
</g>
<g id="TXT">
</g>
<g id="Guias">
</g>
</svg>
