<?xml version="1.0" encoding="utf-8"?>
<!-- Generator: Adobe Illustrator 16.0.0, SVG Export Plug-In . SVG Version: 6.00 Build 0)  -->
<!DOCTYPE svg PUBLIC "-//W3C//DTD SVG 1.1//EN" "http://www.w3.org/Graphics/SVG/1.1/DTD/svg11.dtd">
<svg version="1.1" xmlns="http://www.w3.org/2000/svg" xmlns:xlink="http://www.w3.org/1999/xlink" x="0px" y="0px"
	 width="197.563px" height="89.156px" viewBox="0 0 197.563 89.156" enable-background="new 0 0 197.563 89.156"
	 xml:space="preserve">
<g id="Soporte">
	<rect fill="#383838" width="197.574" height="89.215"/>
</g>
<g id="Imagenes">
</g>
<g id="Vectores">
	<g>
		<g>
			<g>
				<path fill="#FFFFFF" d="M117.811,34.225c-0.084-0.104,0.039-0.335,0.271-0.561c0.353-0.342,2.779-2.793,3.748-3.765
					c0.245-0.245,1.066-0.742,1.876,0.384c0.979,1.364,0.098,2.034,0,2.073c-1.292,0.512-5.354,1.852-5.354,1.852
					S117.92,34.361,117.811,34.225z"/>
				<rect x="11.326" y="28.868" fill="#FFFFFF" width="6.247" height="18.825"/>
				<path fill="#FFFFFF" d="M24.564,34.497c-3.991,0-5.214,1.915-5.59,3.087c-0.086,0.2-0.135,0.396-0.152,0.625
					c-0.016,0.109-0.018,0.161-0.018,0.161c0,1.13,0.896,2.04,2,2.04c1.104,0,1.998-0.996,1.998-2.126
					c0-0.483-0.168-0.452-0.442-1.348h0.002c0,0-0.747-0.82,1.711-0.608c1.976,0.169,2.423,3.296,2.423,3.296v2.332
					c-0.893-0.733-2.217-1.198-3.604-1.198c-2.68,0-4.896,1.704-4.896,3.809s2.238,3.812,4.918,3.812
					c1.387,0,2.689-0.464,3.582-1.198v0.514h5.354v-8.069C31.851,39.624,31.641,34.497,24.564,34.497z M22.803,47.247
					c-1.476,0-2.672-1.12-2.672-2.504c0-1.383,1.196-2.505,2.672-2.505c1.477,0,2.674,1.122,2.674,2.505
					C25.477,46.127,24.279,47.247,22.803,47.247z"/>
				<path fill="#FFFFFF" d="M48.025,35.112c-4.32,0-7.82,3.097-7.82,6.914c0,3.819,3.5,6.916,7.82,6.916
					c4.318,0,7.818-3.097,7.818-6.916C55.844,38.209,52.344,35.112,48.025,35.112z M48.025,47.438c-1.967,0-3.561-2.422-3.561-5.411
					c0-2.987,1.594-5.41,3.561-5.41c1.964,0,3.559,2.423,3.559,5.41C51.584,45.016,49.989,47.438,48.025,47.438z"/>
				<path fill="#FFFFFF" d="M120.536,35.112c-4.319,0-7.819,3.097-7.819,6.914c0,3.819,3.5,6.916,7.819,6.916
					c4.318,0,7.819-3.097,7.819-6.916C128.355,38.209,124.854,35.112,120.536,35.112z M120.536,47.438
					c-1.967,0-3.559-2.422-3.559-5.411c0-2.987,1.592-5.41,3.559-5.41c1.965,0,3.558,2.423,3.558,5.41
					C124.094,45.016,122.501,47.438,120.536,47.438z"/>
				<path fill="#FFFFFF" d="M68.031,35.3c-1.812,0-3.165,0.544-4.95,1.453v-2.507h-6.246v25.101h6.246V47.488
					c1.785,0.907,3.139,1.454,4.95,1.454c4.306,0,7.797-3.054,7.797-6.82C75.828,38.354,72.337,35.3,68.031,35.3z M65.621,47.247
					c-0.9,0-1.647-0.381-2.54-0.999v-7.784c0.893-0.618,1.64-1.001,2.54-1.001c2.197,0,3.98,2.19,3.98,4.893
					C69.602,45.057,67.818,47.247,65.621,47.247z"/>
				<rect x="76.467" y="34.246" fill="#FFFFFF" width="6.246" height="13.447"/>
				<path fill="#FFFFFF" d="M82.887,30.596c0.562,1.355-0.773,2.383-2.557,3.038c-2.015,0.736-3.602,0.216-3.859-0.62
					c-0.232-0.766,0.58-2.029,2.441-2.857C80.647,29.382,82.407,29.432,82.887,30.596z"/>
				<rect x="105.021" y="34.246" fill="#FFFFFF" width="6.246" height="13.447"/>
				<path fill="#FFFFFF" d="M111.545,30.596c0.561,1.355-0.773,2.383-2.556,3.038c-2.016,0.736-3.604,0.216-3.86-0.62
					c-0.233-0.766,0.58-2.029,2.441-2.857C109.307,29.382,111.064,29.432,111.545,30.596z"/>
				<path fill="#FFFFFF" d="M102.616,38.729c-0.193-2.688-2.572-2.809-5.534-2.853c-2.477-0.037-5.445,1.062-6.338,1.644v-3.273
					h-6.247v13.447h6.247V39.77c0.893-0.657,1.999-1.667,3.497-1.834c2.293-0.26,2.749,1.854,2.749,2.657v7.101h5.609
					L102.616,38.729z"/>
				<path fill="#FFFFFF" d="M147.922,38.729c-0.193-2.688-2.473-2.809-5.435-2.853c-2.477-0.037-5.343,1.062-6.235,1.644v-3.273
					h-6.246v13.447h6.246V39.77c0-0.657,1.555-1.667,3.051-1.834c2.294-0.26,2.304,1.854,2.304,2.657v7.101h6.37L147.922,38.729z"/>
			</g>
		</g>
		<g>
			<path fill="#D3D3D3" d="M164.807,47.693v-7.172h-6.247v-1.793h6.247v-0.771c0-1.387-0.498-2.448-1.084-3.184
				c-0.588-0.733-1.533-1.102-2.634-1.102s-1.952,0.368-2.536,1.102c-0.584,0.735-0.886,1.797-0.886,3.184v9.736h-1.784v-9.779
				c0-1.9,0.299-3.409,1.301-4.525c1-1.118,2.233-1.675,3.903-1.675s3,0.557,4.004,1.675c1.005,1.116,1.499,2.625,1.499,4.525v9.779
				H164.807z"/>
			<path fill="#D3D3D3" d="M165.083,31.556h2.613c1.218,0,2.266,0.307,3.142,0.491c0.875,0.186,1.627,0.573,2.253,0.952
				c1.278,0.771,2.251,1.794,2.916,2.957c0.665,1.166,0.996,2.501,0.996,3.956c0,1.454-0.349,2.793-1.047,3.987
				s-1.689,2.18-2.975,2.944c-0.592,0.351-1.312,0.505-2.16,0.688c-0.851,0.181-1.804,0.162-2.86,0.162h-0.479v-1.71
				c0,0,0.299,0.003,0.417,0.01c0.118,0.01,0.279,0.013,0.329,0.013c1.975,0,3.595-0.559,4.788-1.677
				c1.192-1.116,1.806-2.587,1.806-4.411c0-1.864-0.599-3.343-1.817-4.442c-1.219-1.099-2.864-1.648-4.948-1.648
				c-0.11,0-0.235,0.003-0.373,0.012c-0.142,0.008-0.719-0.193-0.992-0.178L165.083,31.556z"/>
			<path fill="#D3D3D3" d="M178.465,36.962c0.313,0.338,1.065,0.814,2.256,1.431l2.316,1.179c1.011,0.521,1.76,1.112,2.242,1.782
				c0.484,0.668,0.727,1.441,0.727,2.326c0,1.343-0.456,2.271-1.368,3.013c-0.913,0.742-2.204,1.001-3.874,1.001h-6.186l2.112-1.794
				h4.482c0.865,0,1.521-0.218,1.97-0.561c0.446-0.339,0.669-0.865,0.669-1.525c0-0.512-0.173-0.971-0.516-1.353
				c-0.343-0.383-0.986-0.82-1.933-1.302l-2.658-1.373L178.465,36.962z"/>
			<path fill="#D3D3D3" d="M176.175,33.871c0.2-0.32,0.458-0.815,0.772-1.067c0.864-0.69,2.05-1.248,3.558-1.248h4.824v2.69h-5.522
				c-0.606,0-1.09,0.073-1.448,0.381c-0.357,0.31-0.536,0.674-0.536,1.178L176.175,33.871z"/>
		</g>
		<polygon fill="#D3D3D3" points="149.636,39.238 154.364,41.992 149.636,44.745 		"/>
	</g>
</g>
<g id="TXT">
</g>
<g id="Guias">
</g>
</svg>
