<svg xmlns="http://www.w3.org/2000/svg" width="197.563" height="89.156" viewBox="0 0 197.563 89.156"><path fill="#383838" d="M0 0h197.574v89.215H0z"/><path d="M117.811 34.225c-.084-.104.039-.335.271-.561.353-.342 2.779-2.793 3.748-3.765.245-.245 1.066-.742 1.876.384.979 1.364.098 2.034 0 2.073-1.292.512-5.354 1.852-5.354 1.852s-.432.153-.541.017zM11.326 28.868h6.247v18.825h-6.247zm13.238 5.629c-3.991 0-5.214 1.915-5.59 3.087a1.88 1.88 0 0 0-.152.625c-.016.109-.018.161-.018.161 0 1.13.896 2.04 2 2.04s1.998-.996 1.998-2.126c0-.483-.168-.452-.442-1.348h.002s-.747-.82 1.711-.608c1.976.169 2.423 3.296 2.423 3.296v2.332c-.893-.733-2.217-1.198-3.604-1.198-2.68 0-4.896 1.704-4.896 3.809s2.238 3.812 4.918 3.812c1.387 0 2.689-.464 3.582-1.198v.514h5.354v-8.069c.001-.002-.209-5.129-7.286-5.129zm-1.761 12.75c-1.476 0-2.672-1.12-2.672-2.504 0-1.383 1.196-2.505 2.672-2.505 1.477 0 2.674 1.122 2.674 2.505 0 1.384-1.198 2.504-2.674 2.504zm25.222-12.135c-4.32 0-7.82 3.097-7.82 6.914 0 3.819 3.5 6.916 7.82 6.916 4.318 0 7.818-3.097 7.818-6.916.001-3.817-3.499-6.914-7.818-6.914zm0 12.326c-1.967 0-3.561-2.422-3.561-5.411 0-2.987 1.594-5.41 3.561-5.41 1.964 0 3.559 2.423 3.559 5.41 0 2.989-1.595 5.411-3.559 5.411zm72.511-12.326c-4.319 0-7.819 3.097-7.819 6.914 0 3.819 3.5 6.916 7.819 6.916 4.318 0 7.819-3.097 7.819-6.916 0-3.817-3.501-6.914-7.819-6.914zm0 12.326c-1.967 0-3.559-2.422-3.559-5.411 0-2.987 1.592-5.41 3.559-5.41 1.965 0 3.558 2.423 3.558 5.41 0 2.989-1.593 5.411-3.558 5.411zM68.031 35.3c-1.812 0-3.165.544-4.95 1.453v-2.507h-6.246v25.101h6.246V47.488c1.785.907 3.139 1.454 4.95 1.454 4.306 0 7.797-3.054 7.797-6.82 0-3.768-3.491-6.822-7.797-6.822zm-2.41 11.947c-.9 0-1.647-.381-2.54-.999v-7.784c.893-.618 1.64-1.001 2.54-1.001 2.197 0 3.98 2.19 3.98 4.893.001 2.701-1.783 4.891-3.98 4.891zm10.846-13.001h6.246v13.447h-6.246zm6.42-3.65c.562 1.355-.773 2.383-2.557 3.038-2.015.736-3.602.216-3.859-.62-.232-.766.58-2.029 2.441-2.857 1.735-.775 3.495-.725 3.975.439zm22.134 3.65h6.246v13.447h-6.246zm6.524-3.65c.561 1.355-.773 2.383-2.556 3.038-2.016.736-3.604.216-3.86-.62-.233-.766.58-2.029 2.441-2.857 1.737-.775 3.494-.725 3.975.439zm-8.929 8.133c-.193-2.688-2.572-2.809-5.534-2.853-2.477-.037-5.445 1.062-6.338 1.644v-3.273h-6.247v13.447h6.247V39.77c.893-.657 1.999-1.667 3.497-1.834 2.293-.26 2.749 1.854 2.749 2.657v7.101h5.609l.017-8.965zm45.306 0c-.193-2.688-2.473-2.809-5.435-2.853-2.477-.037-5.343 1.062-6.235 1.644v-3.273h-6.246v13.447h6.246V39.77c0-.657 1.555-1.667 3.051-1.834 2.294-.26 2.304 1.854 2.304 2.657v7.101h6.37l-.055-8.965z" fill="#FFF"/><g fill="#D3D3D3"><path d="M164.807 47.693v-7.172h-6.247v-1.793h6.247v-.771c0-1.387-.498-2.448-1.084-3.184-.588-.733-1.533-1.102-2.634-1.102s-1.952.368-2.536 1.102c-.584.735-.886 1.797-.886 3.184v9.736h-1.784v-9.779c0-1.9.299-3.409 1.301-4.525 1-1.118 2.233-1.675 3.903-1.675s3 .557 4.004 1.675c1.005 1.116 1.499 2.625 1.499 4.525v9.779h-1.783z"/><path d="M165.083 31.556h2.613c1.218 0 2.266.307 3.142.491.875.186 1.627.573 2.253.952a8.205 8.205 0 0 1 2.916 2.957c.665 1.166.996 2.501.996 3.956 0 1.454-.349 2.793-1.047 3.987s-1.689 2.18-2.975 2.944c-.592.351-1.312.505-2.16.688-.851.181-1.804.162-2.86.162h-.479v-1.71s.299.003.417.01c.118.01.279.013.329.013 1.975 0 3.595-.559 4.788-1.677 1.192-1.116 1.806-2.587 1.806-4.411 0-1.864-.599-3.343-1.817-4.442-1.219-1.099-2.864-1.648-4.948-1.648-.11 0-.235.003-.373.012-.142.008-.719-.193-.992-.178l-1.609-2.106z"/><path d="M178.465 36.962c.313.338 1.065.814 2.256 1.431l2.316 1.179c1.011.521 1.76 1.112 2.242 1.782.484.668.727 1.441.727 2.326 0 1.343-.456 2.271-1.368 3.013-.913.742-2.204 1.001-3.874 1.001h-6.186l2.112-1.794h4.482c.865 0 1.521-.218 1.97-.561.446-.339.669-.865.669-1.525 0-.512-.173-.971-.516-1.353-.343-.383-.986-.82-1.933-1.302l-2.658-1.373-.239-2.824zm-2.29-3.091c.2-.32.458-.815.772-1.067a5.616 5.616 0 0 1 3.558-1.248h4.824v2.69h-5.522c-.606 0-1.09.073-1.448.381-.357.31-.536.674-.536 1.178l-1.648-1.934z"/></g><path fill="#D3D3D3" d="M149.636 39.238l4.728 2.754-4.728 2.753z"/></svg>