<svg xmlns="http://www.w3.org/2000/svg" width="348.667" height="119.667" viewBox="0 0 348.667 119.667"><path fill="#B92025" d="M.049 0h349.573v120.214H.049z"/><path d="M201.698 49.174c-.131-.164.061-.524.427-.875.555-.535 4.364-4.365 5.886-5.886.383-.382 1.675-1.16 2.943.6 1.538 2.134.153 3.182 0 3.242-2.028.8-8.405 2.893-8.405 2.893s-.678.239-.851.026zM35 41h9v30h-9zm31.212 16c-.185-3-2.467-7.599-10.898-7.704-6.265-.079-8.185 3.143-8.774 4.975-.137.313-.211.696-.24 1.053a2.819 2.819 0 0 0-.027.289c0 1.766 1.405 3.208 3.139 3.208 1.734 0 3.139-1.25 3.139-3.017 0-.755-.266-1.804-.695-1.804h.002s-1.173-1.881 2.686-1.551c3.101.266 3.494 3.551 3.529 4.551H58v4.255c-1-1.148-3.307-1.873-5.486-1.873-4.205 0-7.599 2.666-7.599 5.955s3.385 5.954 7.59 5.954c2.18 0 4.495-.725 5.495-1.872V71h8V57h.212zM52.549 69.526c-2.318 0-4.197-1.752-4.197-3.915 0-2.162 1.879-3.914 4.197-3.914s4.198 1.752 4.198 3.914c0 2.163-1.88 3.915-4.198 3.915zm39.596-18.965c-6.781 0-12.277 4.838-12.277 10.806s5.496 10.807 12.277 10.807c6.777 0 12.275-4.838 12.275-10.807s-5.498-10.806-12.275-10.806zm0 19.26c-3.086 0-5.588-3.785-5.588-8.455 0-4.669 2.502-8.454 5.588-8.454 3.084 0 5.586 3.785 5.586 8.454-.001 4.67-2.502 8.455-5.586 8.455zm113.833-19.26c-6.78 0-12.276 4.838-12.276 10.806s5.496 10.807 12.276 10.807c6.778 0 12.276-4.838 12.276-10.807s-5.498-10.806-12.276-10.806zm0 19.26c-3.086 0-5.587-3.785-5.587-8.455 0-4.669 2.501-8.454 5.587-8.454 3.085 0 5.587 3.785 5.587 8.454-.001 4.67-2.502 8.455-5.587 8.455zm-82.316-18.967c-2.845 0-5.662.853-7.662 2.271V50h-10v39h10V69.902c2 1.418 4.817 2.271 7.662 2.271 6.759 0 12.239-4.773 12.239-10.66s-5.48-10.659-12.239-10.659zm-3.785 18.672c-1.413 0-2.877-.596-3.877-1.564V55.798c1-.966 2.464-1.563 3.877-1.563 3.45 0 6.248 3.423 6.248 7.645 0 4.223-2.798 7.646-6.248 7.646zM137 50h10v21h-10zm9.874-6.497c.88 2.119-1.214 3.724-4.015 4.745-3.163 1.155-5.656.34-6.058-.968-.366-1.194.909-3.171 3.831-4.466 2.725-1.208 5.487-1.13 6.242.689zM182 50h10v21h-10zm9.863-6.497c.88 2.119-1.214 3.724-4.014 4.745-3.164 1.155-5.657.34-6.059-.968-.366-1.194.91-3.171 3.832-4.466 2.726-1.208 5.487-1.13 6.241.689zM177.848 56c-.306-4-4.146-4.282-8.794-4.352C165.165 51.59 161 53.414 159 54.32V50h-10v21h10V57.836c1-1.023 2.736-2.602 5.087-2.865 3.602-.403 3.913 2.898 3.913 4.156V71h10V56h-.152zm71.123 0c-.305-4-4.207-4.282-8.855-4.352C236.227 51.59 232 53.414 230 54.32V50h-9v21h9V57.836c1-1.023 2.736-2.602 5.086-2.865 3.603-.403 3.914 2.898 3.914 4.156V71h10V56h-.029z" fill="#FFF"/><g fill="#680008"><path d="M275 71V59h-10v-3h10v-.993c0-2.168-.542-3.827-1.463-4.976-.923-1.147-2.288-1.722-4.016-1.722-1.728 0-3.14.574-4.055 1.722-.918 1.149-1.466 2.808-1.466 4.976V71h-3V54.938c0-2.969.703-5.326 2.275-7.071 1.57-1.745 3.625-2.618 6.246-2.618s4.627.873 6.206 2.618c1.576 1.745 2.273 4.103 2.273 7.071V71h-3z"/><path d="M275.91 46h4.103c1.913 0 3.558-.022 4.932.268 1.374.29 2.555.647 3.54 1.239 2.006 1.206 3.531 2.677 4.575 4.498 1.044 1.82 1.564 3.847 1.564 6.12s-.548 4.332-1.644 6.199c-1.096 1.867-2.652 3.393-4.67 4.587-.928.545-2.059 1.17-3.392 1.454-1.334.284-2.83.635-4.488.635H280v-3.451s.308.006.493.018c.186.011.357.017.438.017 3.098 0 5.601-.873 7.474-2.618 1.873-1.745 2.818-4.044 2.818-6.896 0-2.912-.952-5.225-2.865-6.941s-4.502-2.575-7.773-2.575c-.174 0-.37.006-.589.018-.221.011-1.128.195-1.557.219L275.91 46z"/><path d="M296.92 53.451c.492.528 1.673 1.272 3.541 2.235l3.635 1.844c1.588.813 2.763 1.74 3.521 2.783.761 1.044 1.141 2.256 1.141 3.636 0 2.099-.717 3.94-2.148 5.101-1.434 1.159-3.459 1.951-6.08 1.951h-9.713l3.319-4h7.037c1.356 0 2.386-.131 3.089-.665.701-.533 1.052-1.248 1.052-2.281 0-.8-.271-1.464-.81-2.062s-1.551-1.256-3.035-2.01l-4.174-2.13-.375-4.402zm-3.596-4.832c.314-.498.719-.775 1.213-1.168 1.356-1.078 3.218-1.451 5.584-1.451H307v3h-7.975c-.952 0-1.709.218-2.271.698-.563.482-.844 1.105-.844 1.894l-2.586-2.973z"/></g><path fill="#680008" d="M252 57.008l7.422 4.305L252 65.616z"/></svg>